<svg width="88" height="73" viewBox="0 0 88 73" fill="none" xmlns="http://www.w3.org/2000/svg">
<path d="M24.5815 0.312744C18.2049 0.312744 12.0895 2.83085 7.58063 7.3131C3.07172 11.7954 0.538635 17.8746 0.538635 24.2135C0.538635 26.3863 0.932064 28.5591 1.50035 30.7318H19.3358L24.8875 16.0872C26.1989 12.6108 31.3572 12.2631 33.0184 16.0872L42.0672 39.423L44.6464 33.2523C45.2146 31.8182 46.7446 30.7318 48.6244 30.7318H87.0055C87.5738 28.5591 87.9672 26.3863 87.9672 24.2135C87.9672 17.8746 85.4341 11.7954 80.9252 7.3131C76.4163 2.83085 70.3009 0.312744 63.9244 0.312744C55.7935 0.312744 48.6244 4.35414 44.2529 10.4814C39.8815 4.35414 32.7124 0.312744 24.5815 0.312744ZM4.91006 37.2502C3.75069 37.2502 2.6388 37.7081 1.819 38.523C0.999195 39.338 0.538635 40.4433 0.538635 41.5958C0.538635 42.7483 0.999195 43.8537 1.819 44.6686C2.6388 45.4836 3.75069 45.9414 4.91006 45.9414H15.5764L39.8815 69.8421C44.2529 73.7532 44.2529 73.7532 48.6244 69.8421L72.9295 45.9414H83.5958C84.7552 45.9414 85.8671 45.4836 86.6869 44.6686C87.5067 43.8537 87.9672 42.7483 87.9672 41.5958C87.9672 40.4433 87.5067 39.338 86.6869 38.523C85.8671 37.7081 84.7552 37.2502 83.5958 37.2502H50.3729L46.3075 47.2451C44.5589 51.6341 39.5318 51.0257 37.9144 47.3754L28.9529 24.2135L24.7564 34.3387C24.1006 35.99 22.6144 37.2502 20.6472 37.2502H4.91006Z" fill="#EC5863"/>
</svg>
