<svg width="68" height="74" viewBox="0 0 68 74" fill="none" xmlns="http://www.w3.org/2000/svg">
<path d="M33.7249 0.961914C27.8873 0.961914 24.3931 1.85377 22.172 2.96579C21.0601 3.5232 20.2706 4.10848 19.7397 4.70769C19.2059 5.3069 18.8696 6.1876 18.8696 6.1876C18.7824 6.41144 18.7245 6.64563 18.6972 6.88436L17.2184 25.9588C17.1989 26.0759 17.2378 26.2654 17.2184 26.3936L17.046 28.3111C17.0298 28.4844 17.0298 28.6589 17.046 28.8323C17.046 38.0295 24.5515 45.5545 33.7249 45.5545C42.8983 45.5545 50.4038 38.0295 50.4038 28.8323V28.3975C50.4043 28.3687 50.4043 28.3399 50.4038 28.3111L48.7526 6.88436C48.7253 6.64563 48.6674 6.41144 48.5802 6.1876C48.5802 6.1876 48.2439 5.3069 47.7102 4.70769C47.1792 4.10569 46.3898 3.52041 45.2778 2.96579C43.0568 1.85098 39.5625 0.961914 33.7249 0.961914ZM33.7249 45.5545C15.3781 45.5545 0.367126 54.211 0.367126 62.0147V73.4248H67.0827V62.0147C67.0827 54.6012 53.5116 46.4352 36.4186 45.6409C35.5219 45.5815 34.6235 45.5527 33.7249 45.5545ZM33.7249 6.53598C39.0066 6.53598 41.6446 7.37209 42.7593 7.9295C43.1318 8.11623 43.1763 8.18869 43.2819 8.27788L44.4105 22.5614C41.8531 22.7175 38.3672 23.2582 33.7249 23.2582C29.0826 23.2582 25.5995 22.7175 23.0393 22.5614L24.1679 8.27788C24.2708 8.18869 24.318 8.11623 24.6905 7.9295C25.8052 7.37209 28.4433 6.53598 33.7249 6.53598ZM31.4649 9.32302V12.634H28.1653V17.1629H31.4677V20.4712H35.9821V17.1602H39.2845V12.634H35.9821V9.32302H31.4677H31.4649ZM25.3855 51.8253L32.5101 67.8507H5.92676V62.0147C5.92676 59.9383 13.0153 53.857 25.3855 51.8253ZM42.0644 51.8253C54.4345 53.8598 61.5231 59.9383 61.5231 62.0147V67.8507H34.9397L42.0644 51.8253Z" fill="#EC5863"/>
</svg>
