<svg width="548" height="398" viewBox="0 0 548 398" fill="none" xmlns="http://www.w3.org/2000/svg">
<path opacity="0.6" d="M318.251 70.9803C283.183 69.7529 249.758 58.3518 217.888 45.8806C186.019 33.4093 154.431 19.589 120.185 12.9807C98.1664 8.72553 72.9852 8.12707 55.2475 20.0151C38.1746 31.4517 32.6599 51.1957 29.6935 69.5146C27.4625 83.2994 26.1682 97.8043 32.2671 110.712C36.5126 119.668 44.0469 127.2 49.2594 135.781C67.3899 165.638 54.5726 202.458 34.9212 231.636C25.7048 245.329 15.0129 258.358 7.90167 272.919C0.790478 287.48 -2.50323 304.16 3.72158 319.01C9.89099 333.718 24.5868 344.785 40.5114 352.559C72.8542 368.337 110.964 372.851 148.126 375.438C230.388 381.103 313.094 378.648 395.572 376.193C426.097 375.28 456.758 374.363 486.784 369.6C503.459 366.958 520.678 362.769 532.785 352.656C548.151 339.814 551.963 318.077 541.664 301.975C524.39 274.973 476.631 268.263 464.554 239.284C457.911 223.333 464.735 205.562 474.395 190.768C495.109 159.035 529.839 131.191 531.667 94.9135C532.926 69.9964 516.231 45.0488 490.415 33.2572C463.36 20.8874 425.84 22.4495 405.882 42.8934C385.329 63.956 349.209 72.0606 318.251 70.9803Z" fill="#587EEC"/>
<path d="M122.436 368.693C122.436 368.693 94.7368 347.604 89.5042 320.78C87.3822 309.514 81.6903 299.245 73.2824 291.512C69.2602 287.874 64.9159 284.615 60.304 281.774" stroke="#9AB1F3" stroke-width="2" stroke-miterlimit="10"/>
<path d="M56.9146 264.875C59.342 268.182 60.4399 282.195 60.4399 282.195C60.4399 282.195 47.4615 277.047 45.029 273.746C43.8609 272.159 43.3668 270.169 43.6554 268.215C43.9439 266.261 44.9915 264.502 46.5676 263.326C48.1437 262.15 50.1193 261.652 52.0597 261.943C54.0002 262.233 55.7465 263.288 56.9146 264.875V264.875Z" fill="#587EEC"/>
<path d="M80.1922 275.871C80.444 279.974 73.8113 292.338 73.8113 292.338C73.8113 292.338 65.6878 280.907 65.431 276.804C65.3333 274.848 66.0049 272.932 67.3003 271.471C68.5957 270.01 70.4105 269.122 72.3515 268.999C74.2925 268.877 76.2034 269.529 77.6701 270.815C79.1367 272.101 80.0411 273.918 80.1872 275.871H80.1922Z" fill="#587EEC"/>
<path d="M102.755 307.477C100.921 311.149 88.9905 318.453 88.9905 318.453C88.9905 318.453 87.7163 304.455 89.5495 300.783C90.4519 299.056 91.9914 297.755 93.8368 297.16C95.6821 296.565 97.6857 296.723 99.4164 297.6C101.147 298.478 102.467 300.004 103.091 301.851C103.715 303.699 103.594 305.719 102.755 307.477V307.477Z" fill="#587EEC"/>
<path d="M114.484 335.25C113.29 339.181 102.759 348.406 102.759 348.406C102.759 348.406 99.1484 334.829 100.342 330.893C100.916 329.005 102.211 327.423 103.943 326.496C105.674 325.569 107.701 325.373 109.576 325.951C111.451 326.529 113.022 327.833 113.942 329.577C114.863 331.321 115.058 333.361 114.484 335.25V335.25Z" fill="#587EEC"/>
<path d="M61.8047 302.279C65.8337 302.827 78.5704 297.035 78.5704 297.035C78.5704 297.035 67.8231 288.068 63.7739 287.52C61.8305 287.257 59.8629 287.783 58.304 288.981C56.7452 290.179 55.7227 291.951 55.4616 293.908C55.2004 295.865 55.722 297.847 56.9116 299.417C58.1012 300.986 59.8613 302.016 61.8047 302.279V302.279Z" fill="#587EEC"/>
<path d="M75.9314 334.591C79.9604 333.896 90.3703 324.539 90.3703 324.539C90.3703 324.539 77.4473 319.223 73.4233 319.918C72.4599 320.077 71.5373 320.427 70.7088 320.947C69.8802 321.467 69.1622 322.147 68.5961 322.948C68.0299 323.749 67.6269 324.655 67.4103 325.614C67.1937 326.572 67.1678 327.565 67.3341 328.533C67.5003 329.502 67.8555 330.428 68.379 331.258C68.9026 332.088 69.5842 332.805 70.3844 333.368C71.1847 333.931 72.0877 334.329 73.0415 334.539C73.9953 334.749 74.9809 334.766 75.9415 334.591H75.9314Z" fill="#587EEC"/>
<path d="M93.936 364.103C98.0204 364.103 109.856 356.652 109.856 356.652C109.856 356.652 98.0153 349.212 93.9309 349.212C91.9701 349.212 90.0896 349.997 88.7031 351.393C87.3166 352.789 86.5377 354.683 86.5377 356.657C86.5377 358.632 87.3166 360.526 88.7031 361.922C90.0896 363.318 91.9701 364.103 93.9309 364.103H93.936Z" fill="#587EEC"/>
<path d="M391.523 186.3C391.523 186.3 408.596 155.845 434.331 147.071C445.138 143.457 454.489 136.411 460.983 126.992C464.029 122.489 466.657 117.713 468.835 112.725" stroke="#9AB1F3" stroke-width="2" stroke-miterlimit="10"/>
<path d="M484.991 107.146C482.06 110.007 468.417 112.969 468.417 112.969C468.417 112.969 471.766 99.3259 474.697 96.4604C476.112 95.1265 477.99 94.4054 479.928 94.4523C481.865 94.4992 483.707 95.3104 485.056 96.7113C486.406 98.1121 487.155 99.9906 487.143 101.942C487.131 103.894 486.358 105.763 484.991 107.146Z" fill="#587EEC"/>
<path d="M477.275 131.81C473.246 132.611 460.218 127.631 460.218 127.631C460.218 127.631 470.391 117.995 474.395 117.209C475.356 116.994 476.35 116.975 477.319 117.152C478.288 117.329 479.212 117.7 480.037 118.242C480.861 118.784 481.57 119.486 482.122 120.308C482.673 121.129 483.056 122.054 483.248 123.026C483.44 123.999 483.437 125 483.239 125.972C483.041 126.943 482.653 127.865 482.097 128.683C481.54 129.502 480.827 130.2 479.999 130.737C479.171 131.274 478.245 131.638 477.275 131.81V131.81Z" fill="#587EEC"/>
<path d="M449.193 158.528C445.336 157.184 436.567 146.249 436.567 146.249C436.567 146.249 450.165 143.115 454.033 144.459C454.962 144.769 455.821 145.262 456.56 145.91C457.298 146.557 457.902 147.346 458.335 148.23C458.768 149.114 459.023 150.076 459.084 151.06C459.145 152.044 459.012 153.031 458.691 153.962C458.371 154.894 457.87 155.752 457.217 156.487C456.565 157.222 455.773 157.82 454.89 158.244C454.006 158.669 453.048 158.913 452.07 158.961C451.092 159.01 450.114 158.863 449.193 158.528V158.528Z" fill="#587EEC"/>
<path d="M423.388 173.925C419.359 173.256 408.903 163.949 408.903 163.949C408.903 163.949 421.791 158.543 425.815 159.212C427.752 159.533 429.483 160.615 430.627 162.221C431.771 163.827 432.235 165.825 431.916 167.776C431.598 169.726 430.523 171.469 428.928 172.621C427.334 173.774 425.35 174.241 423.413 173.92L423.388 173.925Z" fill="#587EEC"/>
<path d="M448.841 116.965C448.836 121.078 456.244 133.012 456.244 133.012C456.244 133.012 463.642 121.094 463.642 116.985C463.668 115.992 463.496 115.003 463.136 114.077C462.776 113.152 462.236 112.308 461.547 111.596C460.858 110.884 460.035 110.318 459.126 109.931C458.216 109.545 457.239 109.346 456.252 109.346C455.265 109.346 454.287 109.545 453.378 109.931C452.468 110.318 451.645 110.884 450.956 111.596C450.267 112.308 449.727 113.152 449.367 114.077C449.007 115.003 448.835 115.992 448.861 116.985L448.841 116.965Z" fill="#587EEC"/>
<path d="M418.91 135.355C420.129 139.281 430.725 148.435 430.725 148.435C430.725 148.435 434.251 134.833 433.022 130.907C432.385 129.089 431.071 127.59 429.359 126.727C427.646 125.864 425.668 125.703 423.84 126.28C422.013 126.856 420.478 128.124 419.561 129.817C418.643 131.51 418.414 133.495 418.92 135.355H418.91Z" fill="#587EEC"/>
<path d="M392.284 157.249C392.828 161.307 401.732 172.145 401.732 172.145C401.732 172.145 407.478 159.339 406.934 155.266C406.826 154.28 406.523 153.325 406.044 152.458C405.564 151.59 404.917 150.829 404.14 150.217C403.364 149.605 402.473 149.156 401.522 148.896C400.571 148.636 399.577 148.57 398.6 148.703C397.623 148.835 396.683 149.162 395.833 149.666C394.984 150.17 394.243 150.84 393.654 151.636C393.066 152.433 392.641 153.339 392.406 154.303C392.171 155.267 392.129 156.269 392.284 157.249V157.249Z" fill="#587EEC"/>
<path opacity="0.25" d="M484.991 107.146C482.06 110.007 468.417 112.969 468.417 112.969C468.417 112.969 471.766 99.3259 474.697 96.4604C476.112 95.1265 477.99 94.4054 479.928 94.4523C481.865 94.4992 483.707 95.3104 485.056 96.7113C486.406 98.1121 487.155 99.9906 487.143 101.942C487.131 103.894 486.358 105.763 484.991 107.146Z" fill="black"/>
<path opacity="0.25" d="M477.275 131.81C473.246 132.611 460.218 127.631 460.218 127.631C460.218 127.631 470.391 117.995 474.395 117.209C475.356 116.994 476.35 116.975 477.319 117.152C478.288 117.329 479.212 117.7 480.037 118.242C480.861 118.784 481.57 119.486 482.122 120.308C482.673 121.129 483.056 122.054 483.248 123.026C483.44 123.999 483.437 125 483.239 125.972C483.041 126.943 482.653 127.865 482.097 128.683C481.54 129.502 480.827 130.2 479.999 130.737C479.171 131.274 478.245 131.638 477.275 131.81V131.81Z" fill="black"/>
<path opacity="0.25" d="M449.193 158.528C445.336 157.184 436.567 146.249 436.567 146.249C436.567 146.249 450.165 143.115 454.033 144.459C454.962 144.769 455.821 145.262 456.56 145.91C457.298 146.557 457.902 147.346 458.335 148.23C458.768 149.114 459.023 150.076 459.084 151.06C459.145 152.044 459.012 153.031 458.691 153.962C458.371 154.894 457.87 155.752 457.217 156.487C456.565 157.222 455.773 157.82 454.89 158.244C454.006 158.669 453.048 158.913 452.07 158.961C451.092 159.01 450.114 158.863 449.193 158.528V158.528Z" fill="black"/>
<path opacity="0.25" d="M423.388 173.925C419.359 173.256 408.903 163.949 408.903 163.949C408.903 163.949 421.791 158.543 425.815 159.212C427.752 159.533 429.483 160.615 430.627 162.221C431.771 163.827 432.235 165.825 431.916 167.776C431.598 169.726 430.523 171.469 428.928 172.621C427.334 173.774 425.35 174.241 423.413 173.92L423.388 173.925Z" fill="black"/>
<path opacity="0.25" d="M448.841 116.965C448.836 121.078 456.244 133.012 456.244 133.012C456.244 133.012 463.642 121.094 463.642 116.985C463.668 115.992 463.496 115.003 463.136 114.077C462.776 113.152 462.236 112.308 461.547 111.596C460.858 110.884 460.035 110.318 459.126 109.931C458.216 109.545 457.239 109.346 456.252 109.346C455.265 109.346 454.287 109.545 453.378 109.931C452.468 110.318 451.645 110.884 450.956 111.596C450.267 112.308 449.727 113.152 449.367 114.077C449.007 115.003 448.835 115.992 448.861 116.985L448.841 116.965Z" fill="black"/>
<path opacity="0.25" d="M418.91 135.355C420.129 139.281 430.725 148.435 430.725 148.435C430.725 148.435 434.251 134.833 433.022 130.907C432.385 129.089 431.071 127.59 429.359 126.727C427.646 125.864 425.668 125.703 423.84 126.28C422.013 126.856 420.478 128.124 419.561 129.817C418.643 131.51 418.414 133.495 418.92 135.355H418.91Z" fill="black"/>
<path opacity="0.25" d="M392.284 157.249C392.828 161.307 401.732 172.145 401.732 172.145C401.732 172.145 407.478 159.339 406.934 155.266C406.826 154.28 406.523 153.325 406.044 152.458C405.564 151.59 404.917 150.829 404.14 150.217C403.364 149.605 402.473 149.156 401.522 148.896C400.571 148.636 399.577 148.57 398.6 148.703C397.623 148.835 396.683 149.162 395.833 149.666C394.984 150.17 394.243 150.84 393.654 151.636C393.066 152.433 392.641 153.339 392.406 154.303C392.171 155.267 392.129 156.269 392.284 157.249V157.249Z" fill="black"/>
<path d="M392.505 185.696C392.505 185.696 395.859 150.884 415.833 132.373C424.258 124.658 429.972 114.401 432.12 103.14C433.098 97.7863 433.585 92.3537 433.576 86.9105" stroke="#9AB1F3" stroke-width="2" stroke-miterlimit="10"/>
<path d="M446.096 75.1645C444.585 78.9784 433.284 87.2554 433.284 87.2554C433.284 87.2554 430.856 73.4148 432.382 69.6009C433.117 67.7695 434.544 66.3071 436.349 65.5353C438.155 64.7634 440.191 64.7454 442.009 65.4852C443.828 66.225 445.28 67.662 446.046 69.4801C446.813 71.2982 446.831 73.3484 446.096 75.1797V75.1645Z" fill="#587EEC"/>
<path d="M448.972 100.888C445.633 103.251 431.697 104.027 431.697 104.027C431.697 104.027 437.126 91.0743 440.465 88.7109C441.257 88.1141 442.16 87.6833 443.12 87.4442C444.08 87.205 445.078 87.1623 446.055 87.3186C447.032 87.4748 447.968 87.8269 448.807 88.3539C449.647 88.8809 450.372 89.5722 450.942 90.3867C451.511 91.2013 451.912 92.1226 452.121 93.0961C452.331 94.0696 452.344 95.0755 452.16 96.0542C451.976 97.0329 451.6 97.9646 451.052 98.794C450.504 99.6234 449.797 100.334 448.972 100.883V100.888Z" fill="#587EEC"/>
<path d="M434.034 136.785C429.965 137.13 417.546 130.699 417.546 130.699C417.546 130.699 428.726 122.28 432.795 121.935C434.75 121.77 436.689 122.393 438.187 123.667C439.685 124.942 440.619 126.764 440.783 128.731C440.947 130.699 440.328 132.652 439.063 134.161C437.797 135.669 435.988 136.61 434.034 136.775V136.785Z" fill="#587EEC"/>
<path d="M416.654 161.378C412.701 162.392 399.385 158.198 399.385 158.198C399.385 158.198 408.989 147.999 412.942 146.964C414.84 146.468 416.856 146.752 418.546 147.753C420.237 148.754 421.463 150.391 421.955 152.302C422.447 154.213 422.165 156.243 421.171 157.945C420.177 159.647 418.552 160.882 416.654 161.378V161.378Z" fill="#587EEC"/>
<path d="M417.007 98.9201C418.659 102.678 430.212 110.585 430.212 110.585C430.212 110.585 432.176 96.6683 430.524 92.9102C429.701 91.1519 428.228 89.7876 426.419 89.1087C424.61 88.4298 422.609 88.4902 420.844 89.2769C419.079 90.0637 417.69 91.5145 416.973 93.3192C416.256 95.124 416.268 97.1396 417.007 98.9354V98.9201Z" fill="#587EEC"/>
<path d="M397.043 127.94C399.737 131.029 413.104 135.076 413.104 135.076C413.104 135.076 410.847 121.205 408.153 118.116C407.517 117.366 406.739 116.751 405.865 116.306C404.991 115.86 404.037 115.595 403.06 115.524C402.083 115.453 401.102 115.579 400.173 115.893C399.245 116.207 398.388 116.705 397.652 117.355C396.915 118.006 396.315 118.798 395.886 119.685C395.456 120.571 395.205 121.535 395.149 122.52C395.092 123.505 395.23 124.491 395.556 125.421C395.881 126.352 396.386 127.208 397.043 127.94V127.94Z" fill="#587EEC"/>
<path d="M381.486 158.837C383.621 162.336 396.116 168.6 396.116 168.6C396.116 168.6 396.222 154.546 394.102 151.042C393.046 149.424 391.407 148.283 389.53 147.862C387.654 147.441 385.688 147.773 384.05 148.787C382.413 149.801 381.232 151.417 380.758 153.293C380.284 155.17 380.554 157.158 381.511 158.837H381.486Z" fill="#587EEC"/>
<path d="M366.82 49.365C367.656 46.2763 368.664 43.1724 369.369 40.0432C368.523 43.1724 367.51 46.2865 366.82 49.365Z" fill="url(#paint0_linear_4_6)"/>
<path d="M363.073 79.1153C363.003 78.9936 362.953 78.8719 362.897 78.7603C362.897 78.7096 362.847 78.669 362.827 78.6183C362.717 78.6704 362.604 78.7162 362.489 78.7552C362.268 78.8414 362.041 78.9226 361.809 78.9885C361.578 79.0544 361.482 79.09 361.306 79.1305C361.16 79.1812 361.01 79.2202 360.857 79.2472L360.898 79.3385C361.084 79.2979 361.265 79.2624 361.452 79.2117L361.502 79.8406C361.714 79.8406 361.91 79.8101 362.101 79.8101C362.192 79.8051 362.283 79.8051 362.373 79.8101C362.766 79.8101 363.109 79.8101 363.381 79.8101C363.275 79.5819 363.164 79.3435 363.073 79.1153ZM465.309 242.996C462.942 239.786 458.218 205.329 458.218 205.329C458.218 205.329 448.926 180.828 451.46 171.049C453.993 161.271 444.54 136.253 444.54 136.253C444.54 136.253 438.295 133.519 437.957 129.462C437.957 129.462 412.459 121.347 411.265 115.261C410.298 110.271 394.485 106.69 388.804 105.559C387.071 98.5195 385.329 91.9517 384.044 88.366C383.697 87.2503 383.369 86.2866 383.067 85.5259C380.897 79.9471 374.188 79.4399 369.323 79.8862C369.113 78.9354 368.721 78.0346 368.17 77.2337C368.09 76.9584 367.93 76.7131 367.712 76.5288C367.607 76.4391 367.496 76.3578 367.379 76.2853C367.291 76.1209 367.175 75.9733 367.037 75.8492C366.899 75.7238 366.747 75.6149 366.584 75.5246C366.467 75.4608 366.345 75.4049 366.221 75.3572C365.929 75.2453 365.627 75.162 365.32 75.1087C364.961 75.0344 364.597 74.9869 364.232 74.9667C365.121 74.5751 365.913 73.9916 366.553 73.2575C366.989 72.7421 367.313 72.1411 367.505 71.4926C367.665 70.9533 367.736 70.3915 367.717 69.8291C367.586 70.0608 367.434 70.2799 367.264 70.4833C367.475 68.2366 366.297 65.9543 365.622 63.7177C364.804 60.806 364.653 57.7454 365.179 54.7662C365.853 50.2727 367.525 45.7285 368.659 41.1539C368.661 41.1286 368.661 41.1031 368.659 41.0778C369.253 38.8059 369.621 36.48 369.757 34.1347C369.953 29.4028 368.749 24.6811 366.815 20.3702C365.098 16.5512 362.565 12.7931 358.687 11.2412C355.806 10.0696 352.578 10.2573 349.476 10.0645C342.515 9.62837 335.878 7.16354 329.26 4.92186C322.642 2.68018 315.833 0.64137 308.868 1.03189C301.903 1.42241 294.736 4.80521 291.559 11.0129C290.551 12.9503 289.972 15.1058 288.769 16.9265C286.512 20.36 282.473 22.0793 279.104 24.4478C275.735 26.8163 272.768 30.1788 271.55 34.1905C270.884 36.3518 270.79 38.6507 271.278 40.8597V40.8597C271.387 41.3586 271.529 41.8498 271.701 42.3305C272.179 43.6706 272.924 44.8978 273.891 45.9364C274.621 46.7041 275.459 47.3587 276.379 47.8789V47.8789C277.535 48.5238 278.771 49.0084 280.056 49.3192C280.01 49.4714 279.965 49.6337 279.915 49.7909C279.834 50.0496 279.764 50.2981 279.688 50.577C279.522 51.2008 279.366 51.8348 279.235 52.4738C279.23 52.5193 279.23 52.5653 279.235 52.6108C278.616 55.4955 278.306 58.4386 278.308 61.3898C278.307 62.7856 278.378 64.1805 278.52 65.5689V65.5689C280.534 86.1497 297.406 102.384 318.251 103.439C318.966 103.475 319.686 103.495 320.416 103.495C320.749 103.495 321.076 103.495 321.424 103.495C321.751 103.931 322.073 104.377 322.38 104.813C322.688 105.25 322.97 105.696 323.237 106.132L322.506 105.371L321.776 104.697C321.578 104.97 321.357 105.227 321.116 105.463C320.64 105.294 320.154 105.155 319.661 105.047V105.047C317.571 104.58 314.388 104.408 310.198 105.681C306.345 106.842 301.636 109.231 296.126 113.77L269.278 129.999L254.754 138.895L249.521 151.777C249.521 151.777 245.588 167.083 241.211 184.621C241.04 184.672 240.874 184.723 240.708 184.784C240.353 184.743 239.997 184.723 239.64 184.723C237.101 184.717 234.658 185.702 232.825 187.471C230.992 189.241 229.911 191.657 229.809 194.212C221.106 204.862 220.613 215.513 222.658 220.402C222.843 220.86 223.076 221.297 223.353 221.705C224.692 223.653 227.195 228.674 229.734 234.024C229.668 234.466 229.628 234.836 229.608 235.115C229.603 235.206 229.603 235.297 229.608 235.389C229.608 235.389 231.118 258.368 226.082 264.956C224.979 266.392 225.145 268.278 226.082 270.368C229.457 277.884 242.798 287.921 242.798 287.921C242.798 287.921 258.798 287.835 267.712 286.856C267.687 287.759 267.667 288.656 267.646 289.534C267.445 298.399 267.445 305.829 267.445 305.829L267.113 315.125C267.113 315.125 264.091 334.717 262.58 340.119C261.628 343.506 262.726 374.875 263.683 397.936H421.328C423.181 384.293 420.567 342.842 420.567 342.842C420.567 342.842 418.084 332.126 417.994 322.784C417.989 322.773 417.986 322.762 417.986 322.751C417.986 322.739 417.989 322.728 417.994 322.718C417.994 321.901 417.994 321.105 418.024 320.324L419.167 320.283L421.222 320.212H421.408C421.408 320.212 421.459 320.02 421.575 319.705C421.846 318.922 422.217 318.177 422.677 317.489C423.554 316.185 424.924 314.907 426.983 314.821C428.122 314.775 429.884 313.847 431.874 312.478C431.887 312.481 431.901 312.481 431.914 312.478C437.267 308.831 444.343 302.101 446.061 300.996C448.423 299.474 459.734 289.331 459.734 289.331C459.734 289.331 461.421 287.181 463.219 284.589L463.285 284.498C465.521 281.252 467.898 277.372 467.314 276.15C466.307 273.959 467.989 268.72 467.989 268.72C473.241 259.038 467.676 246.207 465.309 242.996ZM367.923 87.0018C367.972 87.1532 368.002 87.3098 368.014 87.4683C367.888 87.301 367.762 87.1235 367.636 86.9612L367.515 86.7989L367.43 86.6772L367.621 86.4134C367.621 86.4134 367.621 86.4134 367.621 86.4489C367.754 86.6134 367.856 86.8007 367.923 87.0018V87.0018ZM366.231 82.5083C365.682 82.6198 365.249 82.7213 364.967 82.7973C364.609 82.1583 364.267 81.5193 363.96 80.8701C364.767 81.3418 365.528 81.8904 366.231 82.5083V82.5083ZM365.284 83.3096C365.283 83.2995 365.283 83.2892 365.284 83.2792L365.325 83.3096C365.531 83.4465 365.733 83.5784 365.919 83.7153C366.085 83.837 366.236 83.9537 366.387 84.0754C366.287 84.2529 366.176 84.4355 366.065 84.5826C365.889 84.3036 365.722 84.0348 365.561 83.7559C365.461 83.6443 365.37 83.4922 365.284 83.3096ZM362.263 77.0511C363.236 76.9545 364.216 76.9545 365.189 77.0511V77.0511C365.325 77.0511 365.445 77.0765 365.566 77.0968C365.839 77.1393 366.108 77.209 366.367 77.3047C366.962 78.1432 367.329 79.1243 367.43 80.1499L367.158 80.1905L366.891 80.2412C366.387 80.3274 365.884 80.4137 365.491 80.4948L364.987 80.6013C364.317 80.7484 363.93 80.86 363.914 80.865C363.849 80.7281 363.784 80.6013 363.713 80.4694C363.602 80.2514 363.486 80.0282 363.386 79.8101C363.285 79.5921 363.154 79.3435 363.048 79.1153C362.978 78.9936 362.927 78.8719 362.872 78.7603C362.872 78.7096 362.822 78.669 362.801 78.6183C362.772 78.5645 362.747 78.5085 362.726 78.4509C362.419 77.822 362.137 77.1931 361.865 76.5744C361.834 76.5135 361.809 76.4476 361.784 76.3868L362.167 76.3614V76.4933L362.263 77.0511ZM242.103 391.667C242.062 384.115 241.518 375.945 240.007 368.277C239.363 365.015 238.698 361.754 238.023 358.549C237.852 357.748 237.686 356.957 237.52 356.165L235.968 356.373H235.827C231.597 336.284 227.175 318.584 227.175 318.584C227.175 318.584 218.392 284.812 219.409 282.119C219.54 281.769 219.374 280.826 219.001 279.441C216.876 271.763 208.002 250.604 204.9 243.371C204.9 243.341 204.875 243.306 204.864 243.28C204.361 242.068 203.998 241.252 203.887 241.013L204.618 230.221L204.658 229.571L204.754 228.192L204.713 228.156L204.754 227.517C204.754 227.517 197.089 221.188 184.105 216.618C183.601 216.436 183.068 216.258 182.539 216.086C183.188 211.719 184.05 206.79 185.173 201.987C185.279 201.505 185.394 201.038 185.515 200.567C185.621 200.095 185.742 199.638 185.863 199.177C186.054 198.426 186.261 197.686 186.472 196.956C187.172 196.732 187.862 196.484 188.542 196.22L188.804 196.119C197.18 192.837 204.091 186.61 208.258 178.59C212.424 170.571 213.565 161.303 211.467 152.502V152.502C210.271 147.511 208.063 142.823 204.98 138.733C204.749 138.418 204.502 138.104 204.255 137.795C204.008 137.485 203.711 137.14 203.434 136.826C204.89 133.494 206.607 130.324 206.748 127.083C206.773 126.673 206.773 126.261 206.748 125.851V125.8C206.562 123.716 205.645 121.606 203.51 119.389C200.392 116.139 195.955 114.49 191.518 113.699C187.081 112.908 182.559 112.888 178.097 112.355C170.699 111.462 163.492 109.165 156.093 108.46C146.981 107.61 137.806 109.184 129.487 113.024C123.982 115.56 118.407 119.993 118.075 126.074C117.803 131.1 121.278 135.918 120.401 140.883C119.53 145.762 114.595 149.601 115.028 154.536C115.194 156.463 116.176 158.188 117.405 159.724C117.828 160.232 118.276 160.739 118.74 161.246C120.532 163.158 122.507 164.994 123.509 167.403C123.549 167.504 123.589 167.606 123.625 167.707C124.476 170.086 124.093 173.093 121.988 174.458C122 174.467 122.008 174.479 122.013 174.493V174.493C122.043 174.534 122.074 174.564 122.099 174.605C122.102 174.597 122.102 174.588 122.099 174.579C122.845 175.47 123.851 176.102 124.974 176.385L125.402 176.517C125.055 176.897 124.728 177.293 124.395 177.709L124.179 177.998C123.624 178.749 123.119 179.537 122.668 180.356C122.411 180.812 122.164 181.269 121.958 181.725C121.267 183.117 120.768 184.596 120.472 186.122C119.933 189.48 120.694 192.979 119.878 196.266C118.87 200.323 115.683 203.437 113.885 207.205C110.48 214.306 112.409 222.638 113.094 230.479C114.026 241.13 112.515 251.826 111.009 262.405C110.21 268.032 109.411 273.663 108.612 279.299C106.597 293.446 104.583 307.592 102.568 321.739C101.833 326.922 100.962 332.389 97.5319 336.391H97.5671C97.5671 336.391 97.5671 336.421 97.5319 336.432C98.5614 336.885 99.6564 337.169 100.775 337.273V337.273C105.252 337.725 109.997 335.544 114.026 333.16C117.216 331.304 120.238 329.167 123.056 326.775C122.643 328.297 122.199 329.955 121.726 331.74C121.728 331.757 121.728 331.774 121.726 331.791V331.791C116.04 353.599 106.894 393.579 106.894 393.579C106.894 393.579 106.063 395.319 104.986 397.91H247.008C245.346 395.882 243.8 393.939 242.591 392.372L242.103 391.667ZM136.946 190.017C136.981 189.957 137.006 189.901 137.041 189.845C137.041 190.007 137.041 190.165 137.041 190.317C137.041 190.469 137.041 190.606 137.041 190.748C137.041 190.89 137.041 190.875 137.041 190.946C137.041 191.017 137.041 190.946 137.041 190.946C137.041 191.154 136.996 191.361 136.961 191.569C136.961 191.569 136.961 191.595 136.961 191.615L137.464 191.803L138.049 192.046C141.5 193.419 144.995 194.661 148.534 195.774C148.897 195.89 149.264 196.002 149.632 196.109L149.707 196.737C149.798 197.382 149.884 198.036 149.964 198.69C149.964 198.69 149.964 198.72 149.964 198.741C150.191 200.551 150.413 202.357 150.609 204.122C150.609 204.122 141.362 200.572 141.478 205.963C141.473 206.059 141.473 206.156 141.478 206.252C141.468 206.38 141.468 206.509 141.478 206.637C141.564 210.837 142.868 213.327 143.13 214.605C143.114 214.658 143.087 214.706 143.05 214.747C142.826 215.237 142.749 215.781 142.828 216.314C142.819 217.221 142.89 218.128 143.039 219.022C142.767 219.19 142.501 219.357 142.234 219.53C142.032 219.656 141.841 219.798 141.644 219.94C140.409 215.625 138.793 211.429 136.815 207.403C135.43 204.533 133.873 201.54 133.889 198.391C133.889 198.188 133.889 197.98 133.914 197.772C133.97 196.859 134.143 195.958 134.427 195.089C134.543 194.76 134.669 194.435 134.81 194.115C135.139 193.356 135.507 192.615 135.913 191.894C136.175 191.417 136.452 190.946 136.719 190.469C136.805 190.327 136.885 190.18 136.966 190.038L136.946 190.017ZM363.073 79.1153C363.003 78.9936 362.953 78.8719 362.897 78.7603C362.897 78.7096 362.847 78.669 362.827 78.6183C362.717 78.6704 362.604 78.7162 362.489 78.7552C362.268 78.8414 362.041 78.9226 361.809 78.9885C361.578 79.0544 361.482 79.09 361.306 79.1305L360.857 79.2472L360.898 79.3385C361.084 79.2979 361.265 79.2624 361.452 79.2117L361.502 79.8406C361.714 79.8406 361.91 79.8101 362.101 79.8101H362.373C362.766 79.8101 363.109 79.8101 363.381 79.8101C363.275 79.5819 363.164 79.3435 363.073 79.1153Z" fill="url(#paint1_linear_4_6)"/>
<path d="M253.031 153.608L250.01 154.952C250.01 154.952 230.313 232.011 230.313 238.239C230.313 244.467 272.078 279.122 272.078 279.122L278.595 234.826C278.595 234.826 269.238 133.245 253.031 153.608Z" fill="#E8F5FF"/>
<path d="M344.646 129.097L327.195 119.927C326.218 115.731 324.483 111.751 322.078 108.186C319.525 104.474 316.13 100.827 311.9 98.9252C301.208 94.097 357.126 68.7539 357.126 68.7539C358.006 71.7983 359.044 74.7946 360.233 77.7308C363.114 84.8919 367.893 94.1528 374.052 96.7901C384.523 101.279 344.646 129.097 344.646 129.097Z" fill="#FFB0B1"/>
<path opacity="0.1" d="M360.233 77.7308C357.844 86.1928 352.875 93.6852 346.029 99.1499C339.183 104.615 330.805 107.775 322.078 108.186C319.525 104.474 316.13 100.827 311.9 98.9252C301.208 94.097 357.125 68.7539 357.125 68.7539C358.006 71.7983 359.043 74.7946 360.233 77.7308V77.7308Z" fill="black"/>
<path d="M361.804 64.9349C361.806 73.2341 359.364 81.3474 354.787 88.2488C350.21 95.1502 343.703 100.53 336.09 103.707C328.476 106.884 320.098 107.716 312.015 106.098C303.932 104.479 296.507 100.484 290.68 94.6156C284.852 88.7476 280.883 81.2709 279.275 73.1313C277.667 64.9916 278.492 56.5546 281.646 48.8873C284.8 41.22 290.141 34.6668 296.994 30.0566C303.847 25.4463 311.903 22.9861 320.144 22.9871C325.622 22.9616 331.05 24.0292 336.116 26.1282C341.181 28.2271 345.784 31.3159 349.657 35.2162C353.531 39.1164 356.598 43.7508 358.683 48.8517C360.768 53.9526 361.829 59.4189 361.804 64.9349V64.9349Z" fill="#FFB0B1"/>
<path d="M367.818 123.71L356.456 150.408L346.434 168.128H314.353L304.995 143.901L308.788 118.776H333.289L349.108 117.878L354.451 116.083L357.896 118.05L367.818 123.71Z" fill="#575A89"/>
<path opacity="0.1" d="M363.904 88.1226C363.904 88.1226 370.99 89.6441 364.645 94.8831C358.299 100.122 336.406 116.783 336.406 116.783C336.406 116.783 344.097 123.68 342.505 131.759L367.984 117.457L372.516 94.5737C372.516 94.5737 373.025 87.6966 363.904 88.1226Z" fill="black"/>
<path opacity="0.1" d="M341.417 116.783L325.211 119.476C325.211 119.476 328.555 131.927 326.883 135.462C326.832 135.571 326.79 135.685 326.757 135.801L320.144 153.801L325.1 167.935L342.253 144.378L336.406 135.462C336.406 135.462 342.586 127.215 346.262 124.355C349.939 121.494 341.417 116.783 341.417 116.783Z" fill="black"/>
<path d="M341.417 116.088L325.211 118.776C325.211 118.776 328.555 131.227 326.883 134.762C326.832 134.872 326.79 134.985 326.757 135.101L320.144 153.101L325.1 167.236L342.253 143.662L336.406 134.746C336.406 134.746 342.586 126.5 346.262 123.639C349.939 120.779 341.417 116.088 341.417 116.088Z" fill="#DCE6F2"/>
<path d="M364.584 86.7786C364.584 86.7786 371.67 88.3001 365.32 93.5391C358.969 98.7782 336.406 116.783 336.406 116.783C336.406 116.783 344.762 122.336 343.175 130.41L368.654 116.113L373.186 93.2298C373.186 93.2298 373.69 86.3526 364.584 86.7786Z" fill="#575A89"/>
<path opacity="0.1" d="M323.191 109.774C323.191 109.774 324.738 112.685 331.562 117.934C331.562 117.934 320.2 124.02 324.546 132.576L307.166 128.011L304.492 119.597L323.191 109.774Z" fill="black"/>
<path d="M322.521 109.104C322.521 109.104 324.067 112.015 330.892 117.264C330.892 117.264 319.53 123.32 323.876 131.901L306.501 127.337L303.827 118.928L322.521 109.104Z" fill="#575A89"/>
<path opacity="0.1" d="M367.818 123.711L356.456 150.408L346.454 168.128H314.353L304.995 143.901L308.783 118.776H315.597C315.486 124.639 317.611 131.526 317.475 134.087C317.243 138.297 323.71 161.008 323.71 161.008C323.71 161.008 337.242 138.966 342.586 137.003C345.945 135.771 353.061 125.516 357.891 118.051L367.818 123.711Z" fill="black"/>
<path d="M412.575 264.201L411.421 265.662C411.421 265.662 419.777 307.893 417.465 317.484C417.072 319.213 416.848 320.976 416.795 322.748V322.824C416.387 332.582 419.313 345.246 419.313 345.246C419.313 345.246 421.65 382.574 420.32 397.926H263.884C262.968 375.225 261.981 345.814 262.877 342.553C264.388 337.172 267.41 317.651 267.41 317.651L267.742 308.401C267.742 308.401 267.742 299.459 268.014 289.498C268.13 285.02 268.301 280.319 268.548 276.15C268.865 270.906 269.308 266.488 269.918 264.318C270.293 262.672 270.509 260.994 270.562 259.307C270.562 259.15 270.562 258.987 270.593 258.825C270.593 258.318 270.643 257.77 270.663 257.207C270.663 257.05 270.663 256.893 270.663 256.7C270.759 253.434 270.724 249.559 270.618 245.542C270.618 245.324 270.618 245.101 270.618 244.878C270.532 241.865 270.406 238.792 270.265 235.871C269.827 226.742 269.258 219.022 269.258 219.022L250.045 154.917L255.222 142.075L269.59 133.21L296.157 117.057C309.115 106.33 317.646 107.618 320.9 108.795C321.216 108.903 321.525 109.03 321.826 109.175C321.927 109.226 322.008 109.266 322.083 109.312C322.187 109.361 322.286 109.419 322.38 109.485V109.485C321.49 109.916 320.716 110.558 320.124 111.356C319.458 112.264 318.983 113.299 318.729 114.399C318.559 115.081 318.439 115.774 318.372 116.473C318.306 117.209 318.281 117.969 318.281 118.735C318.317 120.415 318.46 122.09 318.709 123.751C318.709 123.782 318.709 123.822 318.709 123.863C318.875 125.05 319.082 126.211 319.283 127.301C319.281 127.32 319.281 127.339 319.283 127.357C319.515 128.63 319.747 129.807 319.903 130.821C319.933 131.004 319.958 131.171 319.983 131.328C320.094 131.999 320.146 132.677 320.139 133.357C320.196 134.998 320.415 136.629 320.794 138.226C320.925 138.895 321.076 139.61 321.242 140.356C321.469 141.37 321.716 142.476 321.983 143.602C322.129 144.22 322.285 144.859 322.446 145.493C322.506 145.747 322.572 146.001 322.632 146.259L322.733 146.66C323.806 150.956 324.969 155.231 325.684 157.818C326.107 159.339 326.374 160.277 326.374 160.277C326.374 160.277 333.959 147.928 340.012 140.898C340.103 140.797 340.184 140.701 340.269 140.609C340.869 139.915 341.458 139.281 342.022 138.723C343.256 137.485 344.364 136.603 345.255 136.278C345.445 136.208 345.629 136.121 345.804 136.02C348.282 134.605 352.281 129.467 356.023 124.086C356.39 123.579 356.748 123.026 357.11 122.504C357.941 121.296 358.747 120.084 359.508 118.923C360.092 118.035 360.651 117.173 361.18 116.352C363.698 112.406 365.471 109.464 365.471 109.464L368.966 109.307L369.575 109.277H369.983L385.852 108.536C385.852 108.536 386.537 108.653 387.665 108.881C387.726 108.881 387.786 108.881 387.852 108.922C393.482 110.048 409.125 113.613 410.082 118.558C411.25 124.613 436.482 132.693 436.482 132.693C436.814 136.75 442.994 139.423 442.994 139.423C442.994 139.423 452.351 164.325 449.848 174.082C447.375 183.719 456.284 207.555 456.521 208.225L454.814 210.396L412.575 264.201Z" fill="#E8F5FF"/>
<path opacity="0.1" d="M363.899 86.3527C363.899 86.3527 379.345 81.9404 382.856 91.0237C386.366 100.107 394.218 136.79 394.218 136.79C394.218 136.79 373.831 140.66 368.487 136.79C365.353 134.494 361.474 133.472 357.624 133.93L346.096 141.837L342.692 140.822C342.692 140.822 361.134 113.212 365.143 103.83C369.152 94.4471 370.507 90.2528 363.899 86.3527Z" fill="black"/>
<path d="M363.23 84.324C363.23 84.324 378.686 79.9116 382.211 88.995C385.737 98.0783 393.573 134.762 393.573 134.762C393.573 134.762 373.191 138.631 367.843 134.762C364.71 132.465 360.833 131.443 356.985 131.901L345.447 139.808L342.042 138.794C342.042 138.794 360.485 111.184 364.494 101.801C368.503 92.4183 369.837 88.2342 363.23 84.324Z" fill="#E8F5FF"/>
<path opacity="0.1" d="M259.548 230.667C259.548 230.667 271.076 233.527 273.252 240.09C275.428 246.653 264.731 246.82 264.731 246.82C264.731 246.82 258.214 235.211 259.548 230.667Z" fill="black"/>
<path opacity="0.1" d="M302.487 279.122C302.487 279.122 274.254 337.339 280.771 342.893C287.288 348.446 302.487 279.122 302.487 279.122Z" fill="black"/>
<path opacity="0.1" d="M341.417 236.22C341.417 236.22 363.975 292.77 359.462 301.503C354.95 310.236 369.152 301.503 369.152 301.503L341.417 236.22Z" fill="black"/>
<path d="M372.829 292.08C372.829 292.08 296.64 295.782 318.865 319.675C341.09 343.567 386.699 320.689 386.699 320.689L372.829 292.08Z" fill="#FFB0B1"/>
<path opacity="0.1" d="M361.804 64.9348C361.811 70.4377 360.738 75.8876 358.647 80.9715C357.947 81.0526 357.247 81.1033 356.572 81.1338C355.564 78.9073 356.103 76.336 356.123 73.8863C356.144 71.4367 355.247 68.556 352.905 67.8967C348.237 66.573 345.013 75.3622 340.41 73.7748C336.885 72.5677 337.807 67.1816 335.777 64.0727C334.17 61.6129 330.952 60.9181 328.449 59.3763C323.126 56.0848 323.287 50.8204 320.814 45.84C318.226 40.6213 312.756 42.163 308.007 45.2415C304.401 47.5847 301.289 50.724 297.431 52.5904C294.092 54.2133 290.34 54.8016 286.638 54.8879C284.359 54.9768 282.08 54.7342 279.87 54.1677C282.469 44.3256 288.535 35.7716 296.935 30.1009C305.336 24.4303 315.498 22.0301 325.526 23.348C335.554 24.6659 344.764 29.6119 351.438 37.2637C358.112 44.9154 361.795 54.7505 361.799 64.9348H361.804Z" fill="black"/>
<path d="M308.022 43.8977C304.411 46.2408 301.304 49.3751 297.446 51.2516C294.107 52.8695 290.355 53.4578 286.653 53.544C282.121 53.6455 277.241 52.8441 274.143 49.5475C271.298 46.5045 270.618 41.8234 271.822 37.832C273.025 33.8406 275.911 30.5288 279.3 28.1299C282.69 25.731 286.623 24.0725 288.869 20.639C290.058 18.8234 290.632 16.6831 291.619 14.7508C294.777 8.56845 301.878 5.22114 308.742 4.80527C315.607 4.38939 322.411 6.44849 328.948 8.68002C335.485 10.9116 342.072 13.3662 348.972 13.8278C352.044 14.0205 355.237 13.8278 358.088 14.9993C361.92 16.5665 364.433 20.3144 366.146 24.1283C368.064 28.4291 369.258 33.1255 369.057 37.8218C368.634 47.8485 362.056 57.6876 364.947 67.2933C365.713 69.8545 367.148 72.4816 366.382 75.0428C365.264 78.7807 360.475 79.6327 356.602 79.8102C355.595 77.5838 356.134 75.0073 356.154 72.5628C356.174 70.1182 355.277 67.2325 352.941 66.5731C348.267 65.2596 345.044 74.0336 340.451 72.4512C336.95 71.2391 337.857 65.858 335.822 62.7491C334.216 60.2843 330.993 59.5945 328.495 58.0527C323.171 54.7612 323.332 49.4968 320.86 44.5164C318.251 39.2723 312.776 40.8141 308.022 43.8977Z" fill="#575A89"/>
<path d="M234.145 236.89L230.303 238.239C230.303 238.239 231.813 261.122 226.777 267.685C221.741 274.248 243.316 290.563 243.316 290.563C243.316 290.563 272.889 290.396 273.725 288.028C274.561 285.659 272.214 245.628 272.214 245.628C272.214 245.628 256.34 239.4 257.675 229.475C257.675 229.475 252.83 252.861 245.648 251.851C238.466 250.842 230.313 244.802 234.145 236.89Z" fill="#E8F5FF"/>
<path opacity="0.1" d="M246.963 258.931C252.562 258.931 257.101 254.751 257.101 249.594C257.101 244.438 252.562 240.257 246.963 240.257C241.364 240.257 236.825 244.438 236.825 249.594C236.825 254.751 241.364 258.931 246.963 258.931Z" fill="black"/>
<path d="M258.047 237.564C258.047 237.564 256.033 175.649 238.497 189.444C220.961 203.239 220.789 219.738 224.128 224.611C227.467 229.485 238.174 253.885 238.174 253.885C239.849 254.863 241.73 255.427 243.663 255.531C245.596 255.635 247.526 255.277 249.295 254.485C251.064 253.693 252.622 252.491 253.84 250.976C255.058 249.461 255.903 247.677 256.305 245.77L258.047 237.564Z" fill="#FFB0B1"/>
<path opacity="0.1" d="M367.44 80.7332C367.358 80.4611 367.201 80.2183 366.986 80.0333C366.12 79.237 364.257 78.9581 361.447 79.2015L361.562 80.5404C365.309 80.2158 366.05 80.9665 366.145 81.0933V81.22L366.261 81.3874C366.728 82.0197 367.059 82.7433 367.233 83.5118C367.406 84.2804 367.418 85.0769 367.269 85.8505C366.448 89.9839 361.406 93.2754 361.356 93.3109L361.235 93.3819L361.16 93.4986C358.984 96.7495 346.68 105.924 343.462 108.298L343.18 107.973C341.74 109.231 329.079 120.394 328.394 124.669C327.951 127.352 324.949 128.392 323.861 128.681C322.713 127.803 318.986 124.816 317.047 121.469C315.229 118.319 322.547 112.172 323.191 109.774L322.184 108.734C322.078 109.119 312.681 117.964 315.294 122.483C317.389 126.109 321.217 129.213 322.557 130.238C322.129 134.153 319.464 157.143 315.37 162.59C310.283 169.361 306.008 203.483 306.481 215.396C306.899 225.981 304.154 245.973 294.988 254.56C293.401 256.111 291.487 257.282 289.388 257.985C287.289 258.687 285.06 258.903 282.866 258.617H282.755H282.644C282.513 258.617 269.218 259.986 258.047 250.502C248.907 242.758 243.729 230.119 242.652 212.926H242.43L242.339 207.921C244.818 207.531 247.05 206.189 248.566 204.177C250.083 202.165 250.766 199.639 250.472 197.131C250.179 194.622 248.931 192.326 246.991 190.724C245.051 189.123 242.57 188.341 240.07 188.543C237.569 188.744 235.244 189.914 233.582 191.806C231.92 193.699 231.052 196.166 231.158 198.69C231.265 201.213 232.339 203.597 234.154 205.34C235.97 207.083 238.385 208.05 240.894 208.037H241.005L241.095 213.012L240.652 213.043C241.76 230.794 247.199 243.924 256.768 252.034C264.041 258.103 273.331 261.165 282.76 260.6C283.429 260.674 284.102 260.711 284.775 260.712C289.097 260.734 293.255 259.05 296.358 256.02C306.013 246.967 308.949 226.239 308.49 215.295C307.987 202.671 312.474 169.776 316.976 163.787C321.388 157.909 324.062 135.005 324.531 130.567C326.127 130.116 329.738 128.691 330.353 124.989C330.796 122.311 339.252 114.059 344.454 109.49L344.298 109.307C347.098 107.248 355.806 100.756 360.122 96.5872C361.462 95.2939 362.791 94.0006 364.181 92.7682C365.853 91.2772 367.979 88.9087 368.538 86.1091C368.728 85.185 368.729 84.2314 368.54 83.3069C368.352 82.3824 367.977 81.5065 367.44 80.7332V80.7332Z" fill="black"/>
<path d="M322.386 129.918C322.174 129.771 317.158 126.155 314.645 121.803C312.036 117.285 321.434 108.445 321.535 108.059L322.542 109.099C321.902 111.493 314.584 117.645 316.403 120.789C318.694 124.76 323.519 128.234 323.569 128.27L322.386 129.918Z" fill="#353146"/>
<path d="M342.808 109.282L342.022 108.191C342.183 108.075 358.002 96.5518 360.495 92.8241L360.575 92.7126L360.691 92.6365C360.742 92.601 365.783 89.3145 366.604 85.1761C366.755 84.4034 366.744 83.6073 366.57 82.8393C366.397 82.0714 366.065 81.3487 365.597 80.7181L365.481 80.5456V80.4239C365.38 80.292 364.64 79.5465 360.893 79.8711L360.777 78.5271C363.592 78.2837 365.451 78.5626 366.317 79.3589C366.532 79.5457 366.691 79.7901 366.775 80.0638C367.32 80.8349 367.702 81.7102 367.897 82.6357C368.093 83.5612 368.099 84.5172 367.913 85.4449C367.354 88.2495 365.234 90.618 363.557 92.104C362.172 93.3364 360.837 94.6398 359.503 95.9229C354.441 100.807 343.362 108.881 342.808 109.282Z" fill="#E8F5FF"/>
<path d="M241.689 206.155L240.355 206.179L240.504 214.349L241.838 214.324L241.689 206.155Z" fill="#E8F5FF"/>
<path d="M240.244 207.393C245.626 207.393 249.989 202.999 249.989 197.579C249.989 192.159 245.626 187.766 240.244 187.766C234.862 187.766 230.499 192.159 230.499 197.579C230.499 202.999 234.862 207.393 240.244 207.393Z" fill="#587EEC"/>
<path d="M240.244 205.73C244.714 205.73 248.337 202.081 248.337 197.579C248.337 193.078 244.714 189.429 240.244 189.429C235.774 189.429 232.151 193.078 232.151 197.579C232.151 202.081 235.774 205.73 240.244 205.73Z" fill="#E8F5FF"/>
<path d="M284.14 260.057C283.467 260.058 282.795 260.023 282.126 259.951C272.697 260.51 263.409 257.449 256.134 251.385C246.565 243.27 241.136 230.155 240.018 212.389L242.032 212.262C243.11 229.455 248.287 242.098 257.433 249.838C268.603 259.296 281.894 257.953 282.025 257.953H282.136H282.247C284.441 258.237 286.671 258.021 288.77 257.318C290.87 256.616 292.785 255.446 294.374 253.895C303.535 245.309 306.28 225.316 305.862 214.732C305.358 202.808 309.634 168.686 314.725 161.92C319.182 155.992 321.947 129.269 321.978 129L322.053 128.239L322.798 128.108C322.844 128.108 327.195 127.276 327.739 124C328.444 119.729 341.085 108.566 342.52 107.304L343.835 108.825C338.612 113.39 330.156 121.646 329.733 124.329C329.119 128.042 325.508 129.462 323.916 129.908C323.413 134.351 320.759 157.249 316.362 163.128C311.86 169.117 307.372 202.012 307.876 214.635C308.309 225.58 305.403 246.313 295.749 255.361C292.64 258.398 288.471 260.084 284.14 260.057Z" fill="#353146"/>
<g opacity="0.1">
<path opacity="0.1" d="M366.095 52.9455C366.921 49.872 367.918 46.7783 368.613 43.6643C367.782 46.7935 366.78 49.872 366.095 52.9455Z" fill="black"/>
<path opacity="0.1" d="M357.67 77.0968C356.662 74.8703 357.201 72.2939 357.221 69.8494C357.241 67.4048 356.345 64.5444 354.008 63.8597C349.335 62.5462 346.111 71.3252 341.518 69.7378C337.993 68.5257 338.925 63.1446 336.89 60.0357C335.283 57.5709 332.065 56.8811 329.567 55.3393C324.239 52.0478 324.4 46.7834 321.932 41.803C319.339 36.5792 313.874 38.121 309.12 41.2046C305.509 43.5477 302.402 46.6871 298.544 48.5585C295.205 50.1764 291.453 50.7647 287.751 50.8509C283.244 50.9574 278.338 50.151 275.241 46.8544C272.854 44.3186 271.993 40.6011 272.486 37.1168C272.401 37.3552 272.325 37.5936 272.25 37.8319C271.041 41.8233 271.746 46.5146 274.571 49.5475C277.669 52.8441 282.574 53.6454 287.081 53.544C290.788 53.4577 294.535 52.8694 297.879 51.2516C301.747 49.375 304.854 46.2408 308.455 43.8976C313.209 40.8141 318.679 39.2723 321.267 44.4961C323.735 49.4765 323.579 54.7409 328.902 58.0324C331.421 59.5539 334.619 60.2639 336.23 62.7287C338.245 65.8478 337.353 71.2187 340.859 72.4309C345.447 74.0132 348.67 65.2392 353.343 66.5528C355.68 67.2121 356.582 70.103 356.557 72.5424C356.531 74.9819 356.008 77.5634 357.005 79.7898C360.878 79.6123 365.667 78.7755 366.79 75.0225C366.945 74.4839 367.016 73.9245 367.002 73.364C365.365 76.2092 361.155 76.9396 357.67 77.0968Z" fill="black"/>
</g>
<path opacity="0.1" d="M448.69 202.063L454.537 208.291C454.537 208.291 459.216 242.611 461.552 245.821C463.889 249.032 469.409 261.802 464.227 271.393C464.227 271.393 462.555 276.611 463.557 278.797C464.559 280.983 456.043 291.923 456.043 291.923C456.043 291.923 444.847 302.015 442.505 303.532C440.163 305.048 427.804 317.159 423.629 317.327C419.454 317.494 418.09 322.713 418.09 322.713L394.53 323.555C394.53 323.555 381.516 322.87 378.686 324.721C378.686 324.721 380.197 304.698 365.657 291.573L384.201 284.843C384.201 284.843 391.221 281.8 393.392 278.62C394.757 276.67 396.694 275.2 398.932 274.415C398.932 274.415 404.109 270.713 404.275 268.694C404.441 266.676 410.606 264.201 410.606 264.201L407.116 234.202L408.954 184.398C408.954 184.398 414.801 142.668 427.165 145.027C439.529 147.385 448.69 202.063 448.69 202.063Z" fill="black"/>
<path d="M450.704 202.063L456.551 208.291C456.551 208.291 461.23 242.611 463.567 245.821C465.904 249.032 471.423 261.802 466.241 271.393C466.241 271.393 464.574 276.611 465.576 278.797C466.578 280.983 458.057 291.923 458.057 291.923C458.057 291.923 446.862 302.015 444.52 303.532C442.178 305.048 429.819 317.159 425.644 317.327C421.469 317.494 420.104 322.713 420.104 322.713L396.544 323.555C396.544 323.555 383.521 322.87 380.7 324.721C380.7 324.721 382.211 304.698 367.672 291.573L386.215 284.843C386.215 284.843 393.236 281.8 395.406 278.62C396.772 276.67 398.709 275.2 400.946 274.415C400.946 274.415 406.123 270.713 406.289 268.694C406.456 266.676 412.62 264.201 412.62 264.201L409.13 234.202L410.968 184.398C410.968 184.398 416.815 142.668 429.179 145.027C441.543 147.385 450.704 202.063 450.704 202.063Z" fill="#E8F5FF"/>
<path opacity="0.1" d="M428.968 252.374C428.968 252.374 446.177 247.809 450.689 253.388C455.202 258.967 428.968 252.374 428.968 252.374Z" fill="black"/>
<path opacity="0.1" d="M424.959 260.027C430.806 264.15 448.851 264.318 448.851 264.318L424.959 260.027Z" fill="black"/>
<path opacity="0.1" d="M433.813 280.638C434.316 280.806 446.217 293.596 451.213 289.727C456.209 285.857 433.813 280.638 433.813 280.638Z" fill="black"/>
<path opacity="0.1" d="M273.539 173.291C273.539 173.291 277.034 197.524 275.312 207.393C273.589 217.263 279.875 229.49 279.875 229.49L273.539 173.291Z" fill="black"/>
<path d="M196.162 183.145C192.133 186.325 189.192 193.852 187.061 202.124C183.345 216.553 182.131 233.284 182.131 233.284C182.131 233.284 150.05 225.879 152.387 222.517C153.857 220.402 151.883 204.467 150.236 192.913C149.254 186.087 148.378 180.787 148.378 180.787C148.378 180.787 207.191 174.392 196.162 183.145Z" fill="#FFB0B1"/>
<path opacity="0.1" d="M196.162 182.471C192.133 185.656 189.192 193.177 187.061 201.449C180.67 203.404 173.872 203.58 167.389 201.959C160.905 200.339 154.979 196.982 150.236 192.244C149.254 185.413 148.378 180.113 148.378 180.113C148.378 180.113 207.191 173.722 196.162 182.471Z" fill="black"/>
<path d="M213.406 164.345C213.409 173.166 210.314 181.704 204.667 188.448C199.02 195.192 191.186 199.706 182.552 201.193C173.917 202.679 165.039 201.042 157.488 196.57C149.938 192.098 144.201 185.081 141.294 176.759C138.388 168.438 138.498 159.349 141.605 151.102C144.713 142.854 150.618 135.98 158.275 131.695C165.932 127.41 174.847 125.992 183.443 127.69C192.038 129.388 199.76 134.094 205.242 140.974C210.525 147.602 213.404 155.846 213.406 164.345V164.345Z" fill="#FFB0B1"/>
<path opacity="0.1" d="M242.656 397.926H232.08L231.189 379.115L230.257 359.645C230.257 359.645 232.659 359.284 236.487 358.747L238.033 358.539H238.159C238.995 362.49 239.821 366.547 240.617 370.599C241.941 377.793 242.631 385.091 242.677 392.408C242.677 392.915 242.677 393.422 242.677 393.899C242.707 395.253 242.677 396.607 242.656 397.926Z" fill="black"/>
<path d="M240.627 397.926H107.992C108.566 396.612 108.949 395.816 108.949 395.816C108.949 395.816 119.56 349.065 124.954 329.286C124.956 329.269 124.956 329.252 124.954 329.235C125.628 326.548 126.442 323.899 127.392 321.298V321.298C127.453 321.121 127.533 320.951 127.629 320.791C130.298 316.419 133.642 311.707 128.963 304.977C124.284 298.247 125.941 268.634 125.941 268.634C125.941 268.634 131.622 243.392 137.636 229.932C138.548 227.847 139.843 225.954 141.453 224.353C141.976 223.837 142.535 223.359 143.125 222.923V222.923C143.574 222.583 144.041 222.27 144.525 221.984L144.621 221.923C147.147 220.481 149.952 219.604 152.845 219.352C154.9 219.136 156.975 219.194 159.014 219.525C168.765 220.965 176.571 223.374 182.776 226.118C199.592 233.558 204.683 243.529 204.784 243.737L204.824 243.823C205.499 245.41 215.37 268.618 218.926 279.446C219.847 282.266 220.351 284.249 220.15 284.792C219.142 287.48 227.835 321.13 227.835 321.13C227.835 321.13 231.864 337.36 235.893 356.384C236.069 357.175 236.235 357.966 236.397 358.767C237.117 362.221 237.832 365.741 238.522 369.255C239.859 376.499 240.548 383.848 240.582 391.216C240.656 393.512 240.671 395.748 240.627 397.926Z" fill="#EB5569"/>
<path opacity="0.1" d="M152.054 207.779C152.054 207.779 142.904 204.228 143.014 209.615C143.125 215.001 145.245 217.577 144.576 218.363C143.906 219.149 144.908 223.861 144.908 223.861C144.908 223.861 157.272 223.861 162.953 226.437C168.634 229.014 189.574 234.177 192.249 235.749C194.923 237.321 204.839 244.371 204.839 244.371L205.731 231.022C205.731 231.022 195.482 222.497 178.666 218.125C161.85 213.753 152.054 207.779 152.054 207.779Z" fill="black"/>
<path d="M152.054 207.104C152.054 207.104 142.904 203.554 143.014 208.94C143.125 214.326 145.245 216.902 144.576 217.689C143.906 218.475 144.908 223.186 144.908 223.186C144.908 223.186 157.272 223.186 162.953 225.768C168.634 228.349 189.574 233.507 192.249 235.074C194.923 236.641 204.839 243.696 204.839 243.696L205.741 230.388C205.741 230.388 195.492 221.863 178.676 217.491C161.86 213.119 152.054 207.104 152.054 207.104Z" fill="#EB5569"/>
<path opacity="0.1" d="M179.678 239.228C179.678 239.228 197.164 258.292 196.273 263.572C195.381 268.851 179.678 239.228 179.678 239.228Z" fill="black"/>
<path opacity="0.1" d="M151.274 308.096C151.274 308.096 138.457 319.989 134.679 320.664C130.902 321.338 137.575 323.58 141.916 321.79C146.258 319.999 155.514 315.288 155.514 315.288L151.274 308.096Z" fill="black"/>
<path d="M245.834 397.926H215.944C211.764 394.274 207.811 390.891 205.292 388.858C201.263 385.601 198.358 380.809 196.504 376.954C196.086 376.077 195.724 375.255 195.416 374.51C194.866 373.225 194.382 371.914 193.966 370.579L216.1 357.342C217.324 358.39 218.473 359.522 219.54 360.73L219.807 361.039C221.036 362.5 222.119 364.158 222.214 365.518C222.325 367.1 226.697 373.222 231.164 379.1C235.696 385.079 240.34 390.795 240.647 391.18C240.647 391.18 241.412 392.23 242.661 393.843C243.543 395.009 244.631 396.409 245.834 397.926Z" fill="#FFB0B1"/>
<path opacity="0.1" d="M205.242 140.975C204.18 143.389 203.228 145.894 203.087 148.582C202.689 156.342 203.334 173.692 194.802 177.587C190.577 179.504 186.054 175.295 181.421 175.193C178.087 175.122 175.03 177.252 172.995 179.915C170.961 182.577 169.696 185.737 168.221 188.75C166.878 191.484 165.33 194.112 163.593 196.611C163.073 197.375 162.501 198.103 161.88 198.787C156.678 196.576 152.046 193.199 148.336 188.912C144.626 184.626 141.937 179.543 140.473 174.051C139.01 168.56 138.81 162.804 139.89 157.223C140.97 151.642 143.301 146.383 146.704 141.846C150.108 137.309 154.496 133.615 159.532 131.045C164.568 128.474 170.121 127.095 175.767 127.013C181.413 126.931 187.002 128.148 192.11 130.571C197.218 132.994 201.71 136.559 205.242 140.995V140.975Z" fill="black"/>
<path d="M202.417 147.213C202.014 154.972 202.664 172.322 194.127 176.212C189.902 178.129 185.379 173.925 180.746 173.824C177.412 173.748 174.36 175.883 172.32 178.54C170.281 181.198 169.027 184.363 167.546 187.38C166.202 190.114 164.655 192.742 162.918 195.241C161.88 196.722 160.732 198.208 159.135 199.04C156.355 200.501 152.986 199.679 150.005 198.741C146.137 197.513 142.326 196.131 138.572 194.592C138.658 194.021 138.702 193.445 138.703 192.868C138.592 193.081 138.472 193.279 138.351 193.492L138.114 193.907C137.686 194.668 137.268 195.429 136.885 196.21C136.739 196.509 136.598 196.819 136.472 197.128C135.966 198.279 135.648 199.506 135.53 200.759C135.274 204.142 136.931 207.352 138.401 210.395C144.057 222.167 147.552 235.931 143.296 248.281C141.453 253.652 138.26 258.424 135.928 263.612C131.852 272.802 130.652 283.023 132.489 292.917C133.652 299.063 135.984 305.149 135.41 311.383C134.402 322.109 125.216 330.092 116.015 335.579C111.044 338.531 104.96 341.158 99.6824 338.825C103.047 334.869 103.913 329.397 104.638 324.234C106.622 310.152 108.612 296.063 110.606 281.967C111.402 276.358 112.196 270.748 112.988 265.139C114.469 254.6 115.97 243.945 115.043 233.34C114.368 225.524 112.464 217.227 115.829 210.152C117.606 206.404 120.774 203.3 121.761 199.263C122.572 195.982 121.817 192.492 122.351 189.15C122.643 187.63 123.137 186.156 123.821 184.768C124.692 182.886 125.828 181.14 127.195 179.585C125.846 179.189 124.587 178.647 123.821 177.511C125.987 176.091 126.314 172.89 125.332 170.486C124.35 168.083 122.386 166.252 120.618 164.355C118.85 162.458 117.148 160.247 116.927 157.66C116.498 152.736 121.384 148.922 122.245 144.063C123.116 139.118 119.671 134.31 119.948 129.305C120.271 123.254 125.79 118.857 131.24 116.306C139.463 112.472 148.546 110.898 157.569 111.741C164.912 112.441 172.018 114.729 179.341 115.616C183.758 116.123 188.235 116.174 192.621 116.955C197.008 117.736 201.405 119.384 204.492 122.625C212.63 131.171 202.88 138.205 202.417 147.213Z" fill="#575A89"/>
<path opacity="0.1" d="M195.608 376.959C193.039 375.838 188.366 376.508 180.343 374.048C172.32 371.588 170.774 360.471 170.774 360.471V360.436C170.678 360.182 169.933 358.529 164.887 352.737C159.311 346.342 147.26 314.04 147.26 314.04C147.26 314.04 136.573 302.482 136.91 298.222C137.248 293.961 135.012 282.626 135.233 269.947C135.455 257.268 159.291 248.859 159.291 248.859C205.187 240.668 194.379 293.951 193.155 297.988C191.931 302.025 198.282 312.929 198.282 312.929C197.386 317.677 201.958 325.025 201.958 325.025C201.958 325.025 203.066 331.527 203.293 333.997C203.306 334.111 203.331 334.224 203.369 334.332C204.104 336.66 210.097 338.77 212.535 340.053C215.098 341.402 223.342 353.178 223.342 353.178C225.12 361.825 198.166 378.095 195.608 376.959Z" fill="black"/>
<path d="M196.943 374.931C194.379 373.805 189.7 374.479 181.683 372.014C173.665 369.55 172.114 358.443 172.114 358.443V358.407C172.023 358.148 171.273 356.5 166.226 350.708C160.651 344.313 148.6 312.006 148.6 312.006C148.6 312.006 137.913 300.453 138.245 296.193C138.577 291.933 136.351 280.597 136.573 267.928C136.795 255.259 160.616 246.856 160.616 246.856C206.511 238.665 195.704 291.948 194.48 295.985C193.256 300.022 199.607 310.926 199.607 310.926C198.71 315.673 203.283 323.022 203.283 323.022C203.283 323.022 204.391 329.524 204.623 331.994C204.631 332.108 204.655 332.221 204.693 332.329C205.429 334.656 211.422 336.766 213.864 338.049C216.423 339.393 224.672 351.175 224.672 351.175C226.46 359.807 199.506 376.077 196.943 374.931Z" fill="#EB5569"/>
<path opacity="0.1" d="M161.523 274.674C161.523 274.674 181.572 295.975 186.805 295.975C192.037 295.975 161.523 274.674 161.523 274.674Z" fill="black"/>
<path d="M196.942 374.931C194.379 373.805 189.7 374.479 181.683 372.014C173.665 369.55 172.114 358.443 172.114 358.443V358.407C177.427 354.857 190.884 344.83 196.187 341.164C199.919 338.592 202.966 334.814 204.749 332.308C205.484 334.636 211.477 336.746 213.92 338.029C216.478 339.373 224.727 351.155 224.727 351.155C226.46 359.807 199.506 376.077 196.942 374.931Z" fill="#FF748E"/>
<g opacity="0.1">
<path opacity="0.1" d="M123.851 177.566C123.877 177.607 123.912 177.642 123.942 177.683C124.093 177.49 124.249 177.298 124.41 177.115C124.239 177.283 124.052 177.434 123.851 177.566V177.566Z" fill="black"/>
<path opacity="0.1" d="M135.535 200.815C135.747 198 137.243 195.52 138.643 193.045C137.726 192.69 136.81 192.33 135.903 191.955C135.989 191.386 136.033 190.811 136.034 190.236C134.619 192.771 133.078 195.267 132.861 198.122C132.604 201.51 134.261 204.715 135.732 207.758C141.393 219.525 144.883 233.289 140.627 245.644C138.779 251.009 135.591 255.787 133.259 260.975C129.184 270.163 127.986 280.383 129.824 290.274C130.978 296.426 133.315 302.507 132.74 308.74C131.733 319.467 122.552 327.45 113.346 332.932C109.584 335.174 105.187 337.228 100.982 337.081C100.593 337.712 100.158 338.314 99.6824 338.881C104.965 341.229 111.044 338.587 116.015 335.625C125.226 330.148 134.428 322.185 135.435 311.438C136.009 305.205 133.672 299.124 132.514 292.973C130.675 283.083 131.87 272.863 135.938 263.673C138.255 258.49 141.478 253.708 143.306 248.342C147.562 235.987 144.067 222.223 138.411 210.456C136.946 207.393 135.279 204.203 135.535 200.815Z" fill="black"/>
<path opacity="0.1" d="M204.482 122.686C203.986 122.174 203.454 121.7 202.89 121.266C208.994 129.239 200.181 136.014 199.743 144.596C199.35 152.355 199.994 169.71 191.458 173.595C187.238 175.518 182.71 171.308 178.082 171.207C174.743 171.136 171.691 173.271 169.651 175.928C167.611 178.586 166.357 181.751 164.882 184.763C163.535 187.497 161.987 190.125 160.248 192.624C159.241 194.11 158.063 195.591 156.461 196.428C153.691 197.884 150.322 197.067 147.335 196.124C144.431 195.204 141.554 194.19 138.703 193.081C138.697 193.609 138.654 194.136 138.572 194.658C142.329 196.2 146.142 197.583 150.01 198.807C152.991 199.75 156.36 200.567 159.135 199.111C160.732 198.274 161.89 196.788 162.923 195.302C164.662 192.806 166.209 190.18 167.551 187.446C169.032 184.434 170.28 181.264 172.325 178.606C174.37 175.949 177.417 173.819 180.751 173.89C185.384 173.991 189.912 178.2 194.132 176.278C202.669 172.393 202.019 155.038 202.417 147.279C202.88 138.256 212.63 131.227 204.482 122.686Z" fill="black"/>
</g>
<path opacity="0.1" d="M138.119 193.913C137.691 194.673 137.273 195.434 136.89 196.215C136.744 196.514 136.603 196.824 136.477 197.133C133.838 194.455 127.412 188.09 123.826 186.117C124.698 184.236 125.834 182.49 127.2 180.934C127.2 180.934 135.747 185.483 138.119 193.913Z" fill="black"/>
<path d="M138.356 193.497C136.376 184.474 127.2 179.59 127.2 179.59C125.833 181.145 124.697 182.891 123.826 184.773C127.608 186.858 134.579 193.847 136.89 196.215L138.356 193.497Z" fill="#EB5569"/>
<defs>
<linearGradient id="paint0_linear_4_6" x1="368.094" y1="49.365" x2="368.094" y2="40.0432" gradientUnits="userSpaceOnUse">
<stop stop-color="#808080" stop-opacity="0.25"/>
<stop offset="0.54" stop-color="#808080" stop-opacity="0.12"/>
<stop offset="1" stop-color="#808080" stop-opacity="0.1"/>
</linearGradient>
<linearGradient id="paint1_linear_4_6" x1="231050" y1="333973" x2="231050" y2="23286.2" gradientUnits="userSpaceOnUse">
<stop stop-color="#808080" stop-opacity="0.25"/>
<stop offset="0.54" stop-color="#808080" stop-opacity="0.12"/>
<stop offset="1" stop-color="#808080" stop-opacity="0.1"/>
</linearGradient>
</defs>
</svg>
