<svg width="140" height="40" viewBox="0 0 140 40" fill="none" xmlns="http://www.w3.org/2000/svg">
<path d="M51.462 26.1415C50.322 26.1415 49.338 25.9555 48.51 25.5835C47.694 25.1995 47.058 24.6475 46.602 23.9275C46.158 23.1955 45.912 22.3075 45.864 21.2635C45.852 20.7475 45.846 20.2015 45.846 19.6255C45.846 19.0375 45.852 18.4795 45.864 17.9515C45.912 16.9315 46.164 16.0675 46.62 15.3595C47.076 14.6515 47.718 14.1115 48.546 13.7395C49.374 13.3675 50.346 13.1815 51.462 13.1815C52.362 13.1815 53.16 13.2955 53.856 13.5235C54.552 13.7395 55.134 14.0335 55.602 14.4055C56.082 14.7775 56.442 15.1855 56.682 15.6295C56.934 16.0735 57.066 16.5115 57.078 16.9435C57.09 17.0515 57.054 17.1415 56.97 17.2135C56.898 17.2855 56.808 17.3215 56.7 17.3215H54.072C53.94 17.3215 53.838 17.3035 53.766 17.2675C53.706 17.2195 53.652 17.1535 53.604 17.0695C53.52 16.8895 53.394 16.7035 53.226 16.5115C53.07 16.3075 52.848 16.1335 52.56 15.9895C52.284 15.8455 51.918 15.7735 51.462 15.7735C50.778 15.7735 50.238 15.9535 49.842 16.3135C49.458 16.6735 49.248 17.2495 49.212 18.0415C49.176 19.0735 49.176 20.1175 49.212 21.1735C49.248 22.0135 49.47 22.6195 49.878 22.9915C50.286 23.3635 50.826 23.5495 51.498 23.5495C51.954 23.5495 52.356 23.4715 52.704 23.3155C53.064 23.1595 53.346 22.9195 53.55 22.5955C53.754 22.2595 53.856 21.8335 53.856 21.3175V20.9755H52.164C52.032 20.9755 51.918 20.9335 51.822 20.8495C51.738 20.7535 51.696 20.6395 51.696 20.5075V19.1755C51.696 19.0435 51.738 18.9355 51.822 18.8515C51.918 18.7555 52.032 18.7075 52.164 18.7075H56.7C56.832 18.7075 56.94 18.7555 57.024 18.8515C57.108 18.9355 57.15 19.0435 57.15 19.1755V21.2275C57.15 22.2595 56.916 23.1415 56.448 23.8735C55.98 24.6055 55.314 25.1695 54.45 25.5655C53.598 25.9495 52.602 26.1415 51.462 26.1415ZM63.4451 26.1415C62.4371 26.1415 61.5851 25.9795 60.8891 25.6555C60.2051 25.3315 59.6771 24.8695 59.3051 24.2695C58.9451 23.6575 58.7411 22.9315 58.6931 22.0915C58.6811 21.8515 58.6751 21.5815 58.6751 21.2815C58.6751 20.9695 58.6811 20.6995 58.6931 20.4715C58.7411 19.6195 58.9571 18.8935 59.3411 18.2935C59.7251 17.6935 60.2591 17.2315 60.9431 16.9075C61.6391 16.5835 62.4731 16.4215 63.4451 16.4215C64.4291 16.4215 65.2631 16.5835 65.9471 16.9075C66.6431 17.2315 67.1831 17.6935 67.5671 18.2935C67.9511 18.8935 68.1671 19.6195 68.2151 20.4715C68.2271 20.6995 68.2331 20.9695 68.2331 21.2815C68.2331 21.5815 68.2271 21.8515 68.2151 22.0915C68.1671 22.9315 67.9571 23.6575 67.5851 24.2695C67.2251 24.8695 66.6971 25.3315 66.0011 25.6555C65.3171 25.9795 64.4651 26.1415 63.4451 26.1415ZM63.4451 23.9455C63.9851 23.9455 64.3751 23.7835 64.6151 23.4595C64.8671 23.1355 65.0111 22.6495 65.0471 22.0015C65.0591 21.8215 65.0651 21.5815 65.0651 21.2815C65.0651 20.9815 65.0591 20.7415 65.0471 20.5615C65.0111 19.9255 64.8671 19.4455 64.6151 19.1215C64.3751 18.7855 63.9851 18.6175 63.4451 18.6175C62.9171 18.6175 62.5271 18.7855 62.2751 19.1215C62.0231 19.4455 61.8851 19.9255 61.8611 20.5615C61.8491 20.7415 61.8431 20.9815 61.8431 21.2815C61.8431 21.5815 61.8491 21.8215 61.8611 22.0015C61.8851 22.6495 62.0231 23.1355 62.2751 23.4595C62.5271 23.7835 62.9171 23.9455 63.4451 23.9455Z" fill="black"/>
<path d="M75.3674 26.1415C74.2274 26.1415 73.2494 25.9555 72.4334 25.5835C71.6294 25.2115 70.9994 24.6655 70.5434 23.9455C70.0994 23.2255 69.8534 22.3315 69.8054 21.2635C69.7934 20.7715 69.7874 20.2435 69.7874 19.6795C69.7874 19.1155 69.7934 18.5755 69.8054 18.0595C69.8534 17.0155 70.1054 16.1335 70.5614 15.4135C71.0174 14.6815 71.6534 14.1295 72.4694 13.7575C73.2854 13.3735 74.2514 13.1815 75.3674 13.1815C76.1594 13.1815 76.8914 13.2835 77.5634 13.4875C78.2354 13.6795 78.8234 13.9675 79.3274 14.3515C79.8314 14.7235 80.2214 15.1795 80.4974 15.7195C80.7854 16.2475 80.9354 16.8475 80.9474 17.5195C80.9594 17.6275 80.9234 17.7175 80.8394 17.7895C80.7674 17.8615 80.6774 17.8975 80.5694 17.8975H78.1394C77.9834 17.8975 77.8634 17.8675 77.7794 17.8075C77.6954 17.7355 77.6234 17.6095 77.5634 17.4295C77.3954 16.7935 77.1194 16.3615 76.7354 16.1335C76.3634 15.8935 75.9014 15.7735 75.3494 15.7735C74.6894 15.7735 74.1674 15.9595 73.7834 16.3315C73.3994 16.6915 73.1894 17.2975 73.1534 18.1495C73.1174 19.1335 73.1174 20.1415 73.1534 21.1735C73.1894 22.0255 73.3994 22.6375 73.7834 23.0095C74.1674 23.3695 74.6894 23.5495 75.3494 23.5495C75.9014 23.5495 76.3694 23.4295 76.7534 23.1895C77.1374 22.9495 77.4074 22.5175 77.5634 21.8935C77.6114 21.7135 77.6774 21.5935 77.7614 21.5335C77.8574 21.4615 77.9834 21.4255 78.1394 21.4255H80.5694C80.6774 21.4255 80.7674 21.4615 80.8394 21.5335C80.9234 21.6055 80.9594 21.6955 80.9474 21.8035C80.9354 22.4755 80.7854 23.0815 80.4974 23.6215C80.2214 24.1495 79.8314 24.6055 79.3274 24.9895C78.8234 25.3615 78.2354 25.6495 77.5634 25.8535C76.8914 26.0455 76.1594 26.1415 75.3674 26.1415ZM87.0701 26.1415C86.0621 26.1415 85.2101 25.9795 84.5141 25.6555C83.8301 25.3315 83.3021 24.8695 82.9301 24.2695C82.5701 23.6575 82.3661 22.9315 82.3181 22.0915C82.3061 21.8515 82.3001 21.5815 82.3001 21.2815C82.3001 20.9695 82.3061 20.6995 82.3181 20.4715C82.3661 19.6195 82.5821 18.8935 82.9661 18.2935C83.3501 17.6935 83.8841 17.2315 84.5681 16.9075C85.2641 16.5835 86.0981 16.4215 87.0701 16.4215C88.0541 16.4215 88.8881 16.5835 89.5721 16.9075C90.2681 17.2315 90.8081 17.6935 91.1921 18.2935C91.5761 18.8935 91.7921 19.6195 91.8401 20.4715C91.8521 20.6995 91.8581 20.9695 91.8581 21.2815C91.8581 21.5815 91.8521 21.8515 91.8401 22.0915C91.7921 22.9315 91.5821 23.6575 91.2101 24.2695C90.8501 24.8695 90.3221 25.3315 89.6261 25.6555C88.9421 25.9795 88.0901 26.1415 87.0701 26.1415ZM87.0701 23.9455C87.6101 23.9455 88.0001 23.7835 88.2401 23.4595C88.4921 23.1355 88.6361 22.6495 88.6721 22.0015C88.6841 21.8215 88.6901 21.5815 88.6901 21.2815C88.6901 20.9815 88.6841 20.7415 88.6721 20.5615C88.6361 19.9255 88.4921 19.4455 88.2401 19.1215C88.0001 18.7855 87.6101 18.6175 87.0701 18.6175C86.5421 18.6175 86.1521 18.7855 85.9001 19.1215C85.6481 19.4455 85.5101 19.9255 85.4861 20.5615C85.4741 20.7415 85.4681 20.9815 85.4681 21.2815C85.4681 21.5815 85.4741 21.8215 85.4861 22.0015C85.5101 22.6495 85.6481 23.1355 85.9001 23.4595C86.1521 23.7835 86.5421 23.9455 87.0701 23.9455ZM94.0784 25.9615C93.9464 25.9615 93.8384 25.9195 93.7544 25.8355C93.6704 25.7515 93.6284 25.6435 93.6284 25.5115V17.0515C93.6284 16.9315 93.6704 16.8295 93.7544 16.7455C93.8384 16.6495 93.9464 16.6015 94.0784 16.6015H96.1484C96.2804 16.6015 96.3884 16.6495 96.4724 16.7455C96.5564 16.8295 96.5984 16.9315 96.5984 17.0515V17.7715C96.9224 17.3995 97.3064 17.1115 97.7504 16.9075C98.2064 16.7035 98.7164 16.6015 99.2804 16.6015H100.072C100.192 16.6015 100.294 16.6435 100.378 16.7275C100.474 16.8115 100.522 16.9195 100.522 17.0515V18.9055C100.522 19.0255 100.474 19.1335 100.378 19.2295C100.294 19.3135 100.192 19.3555 100.072 19.3555H98.3264C97.8344 19.3555 97.4504 19.4935 97.1744 19.7695C96.9104 20.0335 96.7784 20.4115 96.7784 20.9035V25.5115C96.7784 25.6435 96.7304 25.7515 96.6344 25.8355C96.5504 25.9195 96.4424 25.9615 96.3104 25.9615H94.0784ZM106.16 26.1415C105.152 26.1415 104.3 25.9795 103.604 25.6555C102.92 25.3315 102.392 24.8695 102.02 24.2695C101.66 23.6575 101.456 22.9315 101.408 22.0915C101.396 21.8515 101.39 21.5815 101.39 21.2815C101.39 20.9695 101.396 20.6995 101.408 20.4715C101.456 19.6195 101.672 18.8935 102.056 18.2935C102.44 17.6935 102.974 17.2315 103.658 16.9075C104.354 16.5835 105.188 16.4215 106.16 16.4215C107.144 16.4215 107.978 16.5835 108.662 16.9075C109.358 17.2315 109.898 17.6935 110.282 18.2935C110.666 18.8935 110.882 19.6195 110.93 20.4715C110.942 20.6995 110.948 20.9695 110.948 21.2815C110.948 21.5815 110.942 21.8515 110.93 22.0915C110.882 22.9315 110.672 23.6575 110.3 24.2695C109.94 24.8695 109.412 25.3315 108.716 25.6555C108.032 25.9795 107.18 26.1415 106.16 26.1415ZM106.16 23.9455C106.7 23.9455 107.09 23.7835 107.33 23.4595C107.582 23.1355 107.726 22.6495 107.762 22.0015C107.774 21.8215 107.78 21.5815 107.78 21.2815C107.78 20.9815 107.774 20.7415 107.762 20.5615C107.726 19.9255 107.582 19.4455 107.33 19.1215C107.09 18.7855 106.7 18.6175 106.16 18.6175C105.632 18.6175 105.242 18.7855 104.99 19.1215C104.738 19.4455 104.6 19.9255 104.576 20.5615C104.564 20.7415 104.558 20.9815 104.558 21.2815C104.558 21.5815 104.564 21.8215 104.576 22.0015C104.6 22.6495 104.738 23.1355 104.99 23.4595C105.242 23.7835 105.632 23.9455 106.16 23.9455ZM113.168 25.9615C113.036 25.9615 112.928 25.9195 112.844 25.8355C112.76 25.7515 112.718 25.6435 112.718 25.5115V17.0515C112.718 16.9195 112.76 16.8115 112.844 16.7275C112.928 16.6435 113.036 16.6015 113.168 16.6015H115.238C115.37 16.6015 115.478 16.6435 115.562 16.7275C115.646 16.8115 115.688 16.9195 115.688 17.0515V17.7355C116 17.3635 116.408 17.0515 116.912 16.7995C117.416 16.5475 118.01 16.4215 118.694 16.4215C119.39 16.4215 120.002 16.5775 120.53 16.8895C121.07 17.2015 121.49 17.6635 121.79 18.2755C122.102 18.8755 122.258 19.6135 122.258 20.4895V25.5115C122.258 25.6435 122.21 25.7515 122.114 25.8355C122.03 25.9195 121.928 25.9615 121.808 25.9615H119.54C119.42 25.9615 119.312 25.9195 119.216 25.8355C119.132 25.7515 119.09 25.6435 119.09 25.5115V20.5975C119.09 20.0335 118.952 19.6015 118.676 19.3015C118.412 18.9895 118.016 18.8335 117.488 18.8335C116.996 18.8335 116.6 18.9895 116.3 19.3015C116.012 19.6015 115.868 20.0335 115.868 20.5975V25.5115C115.868 25.6435 115.82 25.7515 115.724 25.8355C115.64 25.9195 115.538 25.9615 115.418 25.9615H113.168ZM127.075 26.1415C126.427 26.1415 125.845 26.0215 125.329 25.7815C124.825 25.5295 124.423 25.1935 124.123 24.7735C123.823 24.3535 123.673 23.8795 123.673 23.3515C123.673 22.4995 124.021 21.8275 124.717 21.3355C125.413 20.8315 126.337 20.4895 127.489 20.3095L129.739 19.9675V19.7155C129.739 19.2835 129.649 18.9535 129.469 18.7255C129.289 18.4975 128.959 18.3835 128.479 18.3835C128.143 18.3835 127.867 18.4495 127.651 18.5815C127.447 18.7135 127.285 18.8935 127.165 19.1215C127.057 19.2775 126.907 19.3555 126.715 19.3555H124.699C124.567 19.3555 124.465 19.3195 124.393 19.2475C124.321 19.1635 124.291 19.0675 124.303 18.9595C124.303 18.7435 124.381 18.4975 124.537 18.2215C124.705 17.9335 124.957 17.6515 125.293 17.3755C125.629 17.0995 126.061 16.8715 126.589 16.6915C127.117 16.5115 127.753 16.4215 128.497 16.4215C129.277 16.4215 129.943 16.5115 130.495 16.6915C131.047 16.8715 131.491 17.1235 131.827 17.4475C132.175 17.7715 132.433 18.1555 132.601 18.5995C132.769 19.0315 132.853 19.5115 132.853 20.0395V25.5115C132.853 25.6435 132.805 25.7515 132.709 25.8355C132.625 25.9195 132.523 25.9615 132.403 25.9615H130.315C130.183 25.9615 130.075 25.9195 129.991 25.8355C129.907 25.7515 129.865 25.6435 129.865 25.5115V24.8815C129.709 25.1095 129.499 25.3195 129.235 25.5115C128.971 25.7035 128.659 25.8535 128.299 25.9615C127.951 26.0815 127.543 26.1415 127.075 26.1415ZM127.921 24.0895C128.269 24.0895 128.581 24.0175 128.857 23.8735C129.145 23.7175 129.367 23.4835 129.523 23.1715C129.691 22.8475 129.775 22.4455 129.775 21.9655V21.7135L128.245 21.9835C127.681 22.0795 127.267 22.2295 127.003 22.4335C126.751 22.6255 126.625 22.8535 126.625 23.1175C126.625 23.3215 126.685 23.4955 126.805 23.6395C126.925 23.7835 127.081 23.8975 127.273 23.9815C127.465 24.0535 127.681 24.0895 127.921 24.0895Z" fill="#EC5863"/>
<path d="M14.2495 5.29253C15.6775 4.78702 17.2439 5.46028 17.7474 6.79563C18.1329 7.818 17.7831 8.93121 16.9584 9.62428L17.4001 10.8403L18.1057 11.658C18.2667 11.8451 18.5115 11.9341 18.7571 11.9033C19.4193 11.8199 20.0772 11.8152 20.7212 11.8816C20.9395 11.9044 21.1569 11.8315 21.3139 11.6782L21.8257 11.1811L22.2048 10.0804C21.8856 9.64007 21.7786 9.05611 21.9698 8.50055C22.2943 7.55878 23.348 7.06987 24.2831 7.45293C25.0887 7.78252 25.5252 8.6816 25.2871 9.51983C25.1358 10.0537 24.7553 10.4543 24.2876 10.6532L23.8679 11.873L23.9613 12.5442C23.9934 12.775 24.1295 12.9763 24.3288 13.0967C24.9987 13.5037 25.6136 14.0017 26.1532 14.5778C26.3345 14.7717 26.6055 14.8543 26.8663 14.801L28.2086 14.5274L29.7264 13.6801C29.7361 12.932 30.1362 12.2079 30.8384 11.8158C31.9 11.2234 33.2417 11.6165 33.804 12.696C34.3116 13.6697 33.9885 14.8961 33.0634 15.4986C32.3409 15.9683 31.4608 15.9533 30.7824 15.5554L29.2556 16.4072L28.4019 17.3169C28.1728 17.561 28.0906 17.9056 28.177 18.2278C28.1775 18.2297 28.1779 18.2309 28.1784 18.2328C28.3262 18.7881 28.4154 19.3462 28.4515 19.8997C28.4724 20.2293 28.6577 20.5256 28.9485 20.6825L30.0584 21.2809L32.2599 21.6924C32.649 21.3522 33.1843 21.1867 33.7306 21.2883C34.7101 21.4717 35.3386 22.4435 35.0851 23.4239C34.8672 24.2635 34.042 24.8241 33.1809 24.7162C32.5936 24.6427 32.1202 24.2895 31.8667 23.8138L29.6508 23.4L28.2831 23.5703C28.0309 23.6022 27.8105 23.761 27.7071 23.9929C27.2958 24.9085 26.7292 25.7509 26.0305 26.4787C25.8569 26.6595 25.7913 26.918 25.8536 27.1597L26.1902 28.4754L27.0259 29.7899C27.9491 29.649 28.9084 30.046 29.4391 30.8809C30.1525 32.0025 29.8241 33.4908 28.7077 34.2184C27.592 34.9458 26.0768 34.6341 25.3493 33.5265C24.84 32.7511 24.8367 31.793 25.2529 31.0318L24.3657 29.6367L23.2728 28.7378C23.1109 28.604 22.8901 28.569 22.692 28.6401C22.4722 28.7191 22.2481 28.7897 22.0189 28.8516C20.7737 29.1874 19.5188 29.2334 18.3259 29.0327C18.151 29.0037 17.972 29.054 17.8379 29.1705L17.249 29.683L16.8094 30.7612C17.1039 31.2191 17.1781 31.8078 16.9565 32.3519C16.5799 33.275 15.501 33.7048 14.5891 33.2706C13.8038 32.8967 13.4178 31.9745 13.7019 31.1504C13.8829 30.6255 14.2842 30.2466 14.7623 30.0741L15.2493 28.879L15.162 27.8306C14.2902 27.2856 13.5149 26.5854 12.8816 25.757L11.388 25.9082L9.98863 26.6032C9.99546 27.5414 9.51082 28.4352 8.66293 28.8693C7.46483 29.4821 5.99627 28.9457 5.38318 27.6705C4.77026 26.396 5.2438 24.8658 6.4419 24.2529C7.33848 23.7941 8.38592 23.9789 9.11343 24.6356L10.4331 23.9797L11.3503 22.9958C11.4102 22.9313 11.4325 22.841 11.4101 22.7566L11.4097 22.7553C10.9908 21.1815 11.0378 19.5896 11.4655 18.1255C11.4884 18.0452 11.4715 17.9586 11.4177 17.8949L10.6308 16.9536L8.93269 16.0649C8.46387 16.2722 7.90866 16.273 7.42101 16.0175C6.54006 15.5559 6.22491 14.4439 6.75279 13.5792C7.21622 12.821 8.20009 12.5312 8.99751 12.9174C9.51367 13.1672 9.8459 13.636 9.94319 14.1552L11.6413 15.0439L12.8513 15.1549C12.9353 15.1629 13.0172 15.1272 13.0708 15.0617C13.6213 14.3821 14.2762 13.7817 15.0197 13.2887C15.2237 13.1528 15.3508 12.9281 15.3546 12.6835L15.3698 11.5844L14.8986 10.2886C13.8703 10.217 12.9416 9.59625 12.5752 8.62517C12.0717 7.28983 12.8214 5.7974 14.2495 5.29253Z" fill="#EC5863"/>
<path d="M26.0024 18.8204C25.0926 15.4027 21.5756 13.3817 18.1469 14.3064C14.7182 15.2311 12.6763 18.7514 13.5861 22.1691C14.4959 25.5868 18.013 27.6077 21.4417 26.683C24.8703 25.7583 26.9123 22.2381 26.0024 18.8204Z" fill="#F58A97"/>
<path d="M20.9462 24.8027C17.8432 25.6375 14.6653 24.0532 13.4173 21.2046C13.4523 21.5249 13.512 21.8465 13.5976 22.1672C14.51 25.586 18.0255 27.6106 21.4498 26.6895C24.874 25.7683 26.9102 22.2503 25.9977 18.8315C25.9121 18.5107 25.8036 18.2023 25.6744 17.9074C26.0123 21.0007 24.0492 23.968 20.9462 24.8027Z" fill="#F07281"/>
<path d="M11.3271 33.946C11.0677 32.9725 10.0662 32.3965 9.09007 32.6595C8.11396 32.9226 7.53294 33.925 7.79233 34.8986C8.05171 35.8722 9.05327 36.4481 10.0294 36.1851C11.0055 35.9221 11.5865 34.9196 11.3271 33.946Z" fill="#EB5569"/>
<path d="M34.1126 28.3533C33.9413 27.7103 33.2797 27.3298 32.635 27.5036C31.9903 27.6773 31.6065 28.3395 31.7778 28.9825C31.9492 29.6256 32.6107 30.006 33.2554 29.8323C33.9002 29.6585 34.2839 28.9964 34.1126 28.3533Z" fill="#EB5569"/>
<path d="M30.8459 6.27552C30.5935 5.32836 29.6191 4.76799 28.6695 5.0239C27.7198 5.27981 27.1546 6.25509 27.4069 7.20225C27.6593 8.14941 28.6337 8.70978 29.5833 8.45387C30.533 8.19796 31.0982 7.22268 30.8459 6.27552Z" fill="#EB5569"/>
<path d="M20.1983 22.4244C19.963 21.5414 19.0546 21.019 18.1692 21.2576C17.2839 21.4961 16.7569 22.4054 16.9921 23.2884C17.2274 24.1715 18.1358 24.6939 19.0212 24.4553C19.9065 24.2167 20.4335 23.3075 20.1983 22.4244Z" fill="#EB5569"/>
<path d="M24.3127 19.9436C24.1526 19.3426 23.5342 18.987 22.9316 19.1494C22.329 19.3118 21.9703 19.9307 22.1304 20.5317C22.2906 21.1328 22.9089 21.4883 23.5115 21.326C24.1141 21.1636 24.4728 20.5447 24.3127 19.9436Z" fill="#EB5569"/>
<path d="M19.9594 17.4422C19.8249 16.9375 19.3057 16.6389 18.7997 16.7753C18.2936 16.9116 17.9924 17.4313 18.1269 17.9361C18.2614 18.4408 18.7806 18.7394 19.2866 18.603C19.7927 18.4666 20.0939 17.9469 19.9594 17.4422Z" fill="#EB5569"/>
</svg>
